<?xml version="1.0" encoding="UTF-8"?>
<svg width="337px" height="387px" viewBox="0 0 337 387" version="1.1" xmlns="http://www.w3.org/2000/svg" xmlns:xlink="http://www.w3.org/1999/xlink">
    <title>Logo</title>
    <g id="Page-3" stroke="none" stroke-width="1" fill="none" fill-rule="evenodd">
        <g id="Logo">
            <polygon id="Rectangle-path" fill="#FFFFFF" points="63 85 278 85 278 308 63 308"></polygon>
            <path d="M114.099085,131.55698 C114.099085,143.095053 114.099085,160.636246 114.099085,173.995815 C114.099085,187.355383 109.569196,201.219408 107.814033,211.447784 C106.058871,221.67616 102.717307,238.403078 104.516442,257.699345 C106.315577,276.995612 117.120186,289.644372 122.234928,293.930564 C127.349671,298.216756 138.574062,307 147.746378,307 C156.918695,307 173.179736,298.345527 169.966158,291.805264 C166.75258,285.265001 147.730173,277.588619 138.91993,269.853298 C130.109687,262.117976 124.649383,252.986304 122.234928,244.103436 C119.820474,235.220568 121.348693,215.547908 122.234928,218.976973 C123.121164,222.406037 125.382575,233.419664 134.63469,239.972646 C143.216703,246.22411 155.443132,246.073351 165.870866,244.103436 C179.084815,241.470183 190.006308,233.69103 197.530265,224.263581 C198.294416,230.384387 199.011544,237.108229 204.113727,241.882257 C208.581076,246.093452 216.23435,246.0633 221.912586,243.82202 C231.470362,240.123404 239.064856,233.500069 245.36617,226.474709 C248.093604,223.21832 252.678515,213.4391 247.964286,214.695423 C243.250057,215.951746 240.898821,220.012183 237.571821,222.806246 C235.17356,224.77616 232.869348,227.85164 229.119126,227.620476 C225.157293,227.419464 223.499671,223.791203 222.39459,221.047393 C220.125647,214.032085 219.914035,206.695157 219.761205,199.468786 C219.667156,176.985627 219.784717,144.039808 219.725936,132.029358 C219.667156,120.018908 221.25424,120.018908 206.62955,120.018908 C192.004859,120.018908 192.004859,119.897152 192.098908,131.084603 C192.192958,142.272054 192.110665,173.920198 192.004859,195.327945 C191.205439,206.815764 180.236921,217.489486 166.75258,218.976973 C157.030217,219.740817 148.248349,213.640112 144.792031,206.192628 C141.241664,199.689899 141.723668,192.373073 141.735424,185.387916 C141.723668,159.246343 140.479958,144.94436 140.479958,132.481634 C140.479958,120.018908 141.632063,120.140665 127.865574,120.018908 C114.099085,119.897152 114.099085,120.018908 114.099085,131.55698 Z M162.690114,1.00042055 C169.087074,-1.55572465 175.643255,1.33213405 181.674942,3.57607832 C196.323325,9.51765246 210.306724,17.0495002 224.205829,24.6691544 C242.947143,35.1083734 261.360647,46.1817503 279.408878,57.8795295 C293.092566,66.8650627 306.73879,75.9969404 319.39222,86.5142095 C323.063682,89.8313446 327.128515,92.9923789 329.554302,97.4705114 C332.195506,104.075513 332.832393,111.314672 333.787722,118.348949 C336.925324,147.861694 337.07518,177.589078 336.98152,207.248167 C336.597515,227.580253 335.998091,247.941608 333.843918,268.176132 C333.122738,274.26405 332.354728,280.381237 330.725049,286.293543 C328.973611,293.288795 322.773337,297.44497 317.800005,301.884077 C297.045007,318.547802 274.491742,332.587088 251.91038,346.362954 C229.319651,359.729058 206.550969,372.997599 182.42422,383.183154 C176.917028,385.173436 171.156954,387.953975 165.190828,386.675901 C159.693002,385.388073 154.438691,383.173397 149.249941,380.93921 C134.863806,374.509821 120.955335,367.016999 107.187353,359.280269 C88.7457509,348.860563 70.6225917,337.816455 52.8740711,326.1577 C40.0333212,317.552662 27.1457414,308.908598 15.4195423,298.684018 C11.8323743,295.357126 7.77690768,291.942428 6.46567134,286.888676 C4.22720363,279.044627 3.43109584,270.859109 2.60689016,262.751641 C0.153005039,235.531621 -0.0905102783,208.175013 0.0218814067,180.867188 C0.415252304,159.871674 0.986576702,138.846892 3.2718743,117.968454 C4.08671401,111.519554 4.85472386,104.982846 6.91523809,98.8071215 C8.78843283,93.7533688 13.1904405,90.4557464 16.955562,86.9922673 C30.7797392,75.3627822 45.8214931,65.4308896 60.8819787,55.6550977 C86.7976282,39.1377167 113.26587,23.4788883 140.773735,10.024979 C147.910607,6.61028121 155.131772,3.2931462 162.690114,1.00042055 Z" id="Shape" fill="#11639C" fill-rule="nonzero"></path>
        </g>
    </g>
</svg>